#!OML:ASF I:\Actors\actors\Patient Classification 2\Patient 1\Session 1\actor1.ASF
:FULLY-SPECIFIED
:DEGREES
127
root -0.815098 18.69 5.84807 1.40063 -0.117268 -2.16943
lowerback 2.399 1.02118 0.158553
upperback -2.13426 1.38411 0.432512
thorax -3.54602 0.691305 0.280669
lowerneck -10.7378 -2.75392 -1.30985
upperneck 24.0217 -4.30387 2.81801
head 9.42036 -1.8214 0.708268
rclavicle -1.96238e-014 -1.78906e-015
rhumerus -34.0891 14.4498 -84.8834
rradius 91.8654
rwrist -23.8198
rhand -2.16662 -42.5425
rfingers 7.12502
rthumb 23.5136 -71.1253
lclavicle -1.96238e-014 -1.78906e-015
lhumerus -43.1679 2.32645 89.0609
lradius 39.8969
lwrist -8.31266
lhand -9.04136 -25.2911
lfingers 7.12502
lthumb 16.9066 3.99302
rfemur 0 0 0
rtibia 0
rfoot 0 0
rtoes 0
lfemur -5.07384 -5.98516 -11.6538
ltibia 21.9068
lfoot -21.7015 11.9713
ltoes -55.9207
128
root -0.820734 18.69 5.83517 1.34923 -0.0460995 -2.19411
lowerback 2.56207 1.07842 0.140742
upperback -2.07665 1.4611 0.459568
thorax -3.58018 0.73034 0.311581
lowerneck -10.7522 -2.87951 -1.34462
upperneck 23.8912 -4.47011 2.82692
head 9.38238 -1.90223 0.698257
rclavicle 7.1811e-015 -8.54774e-015
rhumerus -32.8057 14.8368 -84.0965
rradius 92.3743
rwrist -25.6615
rhand 3.8847 -45.6227
rfingers 7.12502
rthumb 29.3056 -73.3335
lclavicle 7.1811e-015 -8.54774e-015
lhumerus -43.0901 2.22291 89.1687
lradius 39.9996
lwrist -8.173
lhand -9.0516 -25.3937
lfingers 7.12502
lthumb 16.8968 3.89125
rfemur 0 0 0
rtibia 0
rfoot 0 0
rtoes 0
lfemur -5.13262 -5.97858 -11.5957
ltibia 22.0052
lfoot -21.7833 11.893
ltoes -55.8791
129
root -0.828332 18.6923 5.81537 1.42095 -0.209836 -2.56937
lowerback 2.73829 1.22163 0.456277
upperback -2.09544 1.67123 0.578317
thorax -3.69506 0.828258 0.240884
lowerneck -10.7752 -3.0132 -1.41472
upperneck 23.7787 -4.65515 2.89342
head 9.35538 -1.98844 0.711691
rclavicle -7.41715e-015 3.57812e-015
rhumerus -31.7096 15.2101 -83.345
rradius 92.8794
rwrist -27.3923
rhand 4.80493 -45.8972
rfingers 7.12502
rthumb 30.1839 -73.451
lclavicle -7.41715e-015 3.57812e-015
lhumerus -43.0741 2.07435 89.2893
lradius 40.1605
lwrist -7.99212
lhand -9.11262 -25.305
lfingers 7.12502
lthumb 16.838 3.98498
rfemur 0 0 0
rtibia 0
rfoot 0 0
rtoes 0
lfemur -5.26195 -5.96211 -11.1488
ltibia 22.0472
lfoot -21.8226 12.0754
ltoes -55.9013
130
root -0.839597 18.6952 5.79153 1.52693 -0.320773 -2.95315
lowerback 2.98473 1.36867 0.776946
upperback -2.16871 1.8896 0.685959
thorax -3.90432 0.929102 0.151808
lowerneck -10.6683 -3.17267 -1.5448
upperneck 23.5708 -4.87635 3.02447
head 9.27505 -2.09283 0.755559
rclavicle -2.91965e-016 5.96354e-016
rhumerus -30.7856 15.5628 -82.6329
rradius 93.4102
rwrist -29.3394
rhand 5.65061 -45.8679
rfingers 7.12502
rthumb 30.9903 -73.2712
lclavicle -2.91965e-016 5.96354e-016
lhumerus -43.0897 1.90226 89.3872
lradius 40.3185
lwrist -7.80648
lhand -9.10831 -25.1228
lfingers 7.12502
lthumb 16.8422 4.16681
rfemur 0 0 0
rtibia 0
rfoot 0 0
rtoes 0
lfemur -5.42339 -5.88967 -10.6566
ltibia 22.0276
lfoot -21.7381 12.1348
ltoes -55.9444
131
root -0.852448 18.6946 5.78131 1.39192 0.0302765 -2.57561
lowerback 3.28548 1.35749 0.309429
upperback -2.13237 1.85166 0.606076
thorax -4.04906 0.921321 0.326214
lowerneck -10.5194 -3.3004 -1.64676
upperneck 23.2952 -5.04267 3.10172
head 9.16034 -2.17652 0.783564
rclavicle 1.82789e-014 -3.97569e-016
rhumerus -29.9108 15.9976 -81.9327
rradius 93.9671
rwrist -31.4371
rhand 6.20066 -46.1355
rfingers 7.12502
rthumb 31.5145 -73.4376
lclavicle 1.82789e-014 -3.97569e-016
lhumerus -43.1132 1.73227 89.4872
lradius 40.47
lwrist -7.5996
lhand -9.16325 -25.143
lfingers 7.12502
lthumb 16.7893 4.15112
rfemur 0 0 0
rtibia 0
rfoot 0 0
rtoes 0
lfemur -5.3773 -5.80355 -10.9889
ltibia 21.9835
lfoot -21.5198 11.6981
ltoes -55.9886
132
root -0.863605 18.6922 5.77807 1.195 0.333852 -2.18186
lowerback 3.52936 1.34199 -0.13968
upperback -2.02725 1.8043 0.506785
thorax -4.08867 0.908419 0.473812
lowerneck -10.4203 -3.41503 -1.69464
upperneck 22.9904 -5.19245 3.14786
head 9.04278 -2.25112 0.793205
rclavicle 2.88859e-014 -1.98785e-016
rhumerus -29.0051 16.4539 -81.2638
rradius 94.4815
rwrist -33.2219
rhand 6.77157 -46.6907
rfingers 7.12502
rthumb 32.0582 -73.885
lclavicle 2.88859e-014 -1.98785e-016
lhumerus -43.1095 1.59218 89.5417
lradius 40.6092
lwrist -7.39521
lhand -9.30762 -25.3366
lfingers 7.12502
lthumb 16.6503 3.96925
rfemur 0 0 0
rtibia 0
rfoot 0 0
rtoes 0
lfemur -5.19547 -5.83554 -11.3799
ltibia 21.8982
lfoot -21.3523 11.434
ltoes -56.0136
